<svg width="20" height="20" viewBox="0 0 20 20" fill="none" xmlns="http://www.w3.org/2000/svg">
<g opacity="0.5">
<path fill-rule="evenodd" clip-rule="evenodd" d="M6.42263 3.88477C6.30754 3.99708 6.25 4.12062 6.25 4.25539C6.25 4.39016 6.30754 4.50809 6.42263 4.60916L12.4073 10L6.42263 15.3908C6.30754 15.4919 6.25 15.6098 6.25 15.7446C6.25 15.8794 6.30754 15.9973 6.42263 16.0984C6.53772 16.1995 6.67199 16.25 6.82545 16.25C6.9789 16.25 7.11317 16.2051 7.22826 16.1152L13.5774 10.3706C13.6925 10.2695 13.75 10.146 13.75 10C13.75 9.854 13.6925 9.73046 13.5774 9.62938L7.22826 3.88477C7.11317 3.79492 6.9789 3.75 6.82545 3.75C6.67199 3.75 6.53772 3.79492 6.42263 3.88477Z" fill="black"/>
</g>
</svg>
