<svg width="20" height="20" viewBox="0 0 20 20" fill="none" xmlns="http://www.w3.org/2000/svg">
<g opacity="0.5">
<path fill-rule="evenodd" clip-rule="evenodd" d="M3.57143 7.85714V16.4286H16.4286V4.64286H14.2857V5.17857C14.2857 5.33482 14.2355 5.46317 14.135 5.56362C14.0346 5.66406 13.9062 5.71429 13.75 5.71429C13.5938 5.71429 13.4654 5.66406 13.365 5.56362C13.2645 5.46317 13.2143 5.33482 13.2143 5.17857V4.64286H6.78571V5.17857C6.78571 5.33482 6.73549 5.46317 6.63504 5.56362C6.5346 5.66406 6.40625 5.71429 6.25 5.71429C6.09375 5.71429 5.9654 5.66406 5.86496 5.56362C5.76451 5.46317 5.71429 5.33482 5.71429 5.17857V4.64286H3.57143V6.78571H16.4286V7.85714H3.57143ZM6.78571 3.57143H13.2143V3.03571C13.2143 2.87946 13.2645 2.75112 13.365 2.65067C13.4654 2.55022 13.5938 2.5 13.75 2.5C13.9062 2.5 14.0346 2.55022 14.135 2.65067C14.2355 2.75112 14.2857 2.87946 14.2857 3.03571V3.57143H16.9643C17.1205 3.57143 17.2489 3.62165 17.3493 3.7221C17.4498 3.82254 17.5 3.95089 17.5 4.10714V16.9643C17.5 17.1205 17.4498 17.2489 17.3493 17.3493C17.2489 17.4498 17.1205 17.5 16.9643 17.5H3.03571C2.87946 17.5 2.75112 17.4498 2.65067 17.3493C2.55022 17.2489 2.5 17.1205 2.5 16.9643V4.10714C2.5 3.95089 2.55022 3.82254 2.65067 3.7221C2.75112 3.62165 2.87946 3.57143 3.03571 3.57143H5.71429V3.03571C5.71429 2.87946 5.76451 2.75112 5.86496 2.65067C5.9654 2.55022 6.09375 2.5 6.25 2.5C6.40625 2.5 6.5346 2.55022 6.63504 2.65067C6.73549 2.75112 6.78571 2.87946 6.78571 3.03571V3.57143ZM6.25 10H7.32143C7.47768 10 7.60603 10.0502 7.70647 10.1507C7.80692 10.2511 7.85714 10.3795 7.85714 10.5357C7.85714 10.692 7.80692 10.8203 7.70647 10.9208C7.60603 11.0212 7.47768 11.0714 7.32143 11.0714H6.25C6.09375 11.0714 5.9654 11.0212 5.86496 10.9208C5.76451 10.8203 5.71429 10.692 5.71429 10.5357C5.71429 10.3795 5.76451 10.2511 5.86496 10.1507C5.9654 10.0502 6.09375 10 6.25 10ZM6.25 13.2143H7.32143C7.47768 13.2143 7.60603 13.2645 7.70647 13.365C7.80692 13.4654 7.85714 13.5937 7.85714 13.75C7.85714 13.9062 7.80692 14.0346 7.70647 14.135C7.60603 14.2355 7.47768 14.2857 7.32143 14.2857H6.25C6.09375 14.2857 5.9654 14.2355 5.86496 14.135C5.76451 14.0346 5.71429 13.9062 5.71429 13.75C5.71429 13.5937 5.76451 13.4654 5.86496 13.365C5.9654 13.2645 6.09375 13.2143 6.25 13.2143ZM9.46429 10H10.5357C10.692 10 10.8203 10.0502 10.9208 10.1507C11.0212 10.2511 11.0714 10.3795 11.0714 10.5357C11.0714 10.692 11.0212 10.8203 10.9208 10.9208C10.8203 11.0212 10.692 11.0714 10.5357 11.0714H9.46429C9.30804 11.0714 9.17969 11.0212 9.07924 10.9208C8.9788 10.8203 8.92857 10.692 8.92857 10.5357C8.92857 10.3795 8.9788 10.2511 9.07924 10.1507C9.17969 10.0502 9.30804 10 9.46429 10ZM9.46429 13.2143H10.5357C10.692 13.2143 10.8203 13.2645 10.9208 13.365C11.0212 13.4654 11.0714 13.5937 11.0714 13.75C11.0714 13.9062 11.0212 14.0346 10.9208 14.135C10.8203 14.2355 10.692 14.2857 10.5357 14.2857H9.46429C9.30804 14.2857 9.17969 14.2355 9.07924 14.135C8.9788 14.0346 8.92857 13.9062 8.92857 13.75C8.92857 13.5937 8.9788 13.4654 9.07924 13.365C9.17969 13.2645 9.30804 13.2143 9.46429 13.2143ZM12.6786 10H13.75C13.9063 10 14.0346 10.0502 14.135 10.1507C14.2355 10.2511 14.2857 10.3795 14.2857 10.5357C14.2857 10.692 14.2355 10.8203 14.135 10.9208C14.0346 11.0212 13.9063 11.0714 13.75 11.0714H12.6786C12.5223 11.0714 12.394 11.0212 12.2935 10.9208C12.1931 10.8203 12.1429 10.692 12.1429 10.5357C12.1429 10.3795 12.1931 10.2511 12.2935 10.1507C12.394 10.0502 12.5223 10 12.6786 10ZM12.6786 13.2143H13.75C13.9063 13.2143 14.0346 13.2645 14.135 13.365C14.2355 13.4654 14.2857 13.5937 14.2857 13.75C14.2857 13.9062 14.2355 14.0346 14.135 14.135C14.0346 14.2355 13.9063 14.2857 13.75 14.2857H12.6786C12.5223 14.2857 12.394 14.2355 12.2935 14.135C12.1931 14.0346 12.1429 13.9062 12.1429 13.75C12.1429 13.5937 12.1931 13.4654 12.2935 13.365C12.394 13.2645 12.5223 13.2143 12.6786 13.2143Z" fill="black"/>
</g>
</svg>
