<svg width="32" height="32" viewBox="0 0 32 32" fill="none" xmlns="http://www.w3.org/2000/svg">
<path fill-rule="evenodd" clip-rule="evenodd" d="M25.25 12.5714H18.25V5.71429H7.75V26.2857H25.25V12.5714ZM24.5391 10.8571L20 6.41071V10.8571H24.5391ZM6.875 4H20L27 10.8571V27.1429C27 27.3929 26.918 27.5982 26.7539 27.7589C26.5898 27.9196 26.3802 28 26.125 28H6.875C6.61979 28 6.41016 27.9196 6.24609 27.7589C6.08203 27.5982 6 27.3929 6 27.1429V4.85714C6 4.60714 6.08203 4.40179 6.24609 4.24107C6.41016 4.08036 6.61979 4 6.875 4ZM11 16H22V18H11V16ZM11 11H15V13H11V11ZM11 21H22V23H11V21Z" fill="black"/>
</svg>
