<svg width="72" height="42" viewBox="0 0 72 42" fill="none" xmlns="http://www.w3.org/2000/svg">
<path d="M4.33042 27.5417C4.94041 27.5417 5.37249 27.3807 5.62666 27.0587C5.88083 26.7537 6.00791 26.1437 6.00791 25.2287V10.4363C5.31319 10.1821 4.84722 9.89409 4.61 9.57215L4.86416 7.46257H10.8116L11.0658 9.57215C10.7947 9.89409 10.3287 10.1821 9.66789 10.4363L9.64248 25C9.64248 26.9486 9.26123 28.3126 8.49873 29.0921C7.75318 29.8885 6.53318 30.2866 4.83875 30.2866C3.16125 30.2866 1.72098 29.8461 0.517931 28.965C0.517931 28.8633 0.517931 28.6769 0.517931 28.4058C0.517931 28.1517 0.577236 27.7196 0.695847 27.1096C0.797513 26.5165 0.950013 26.0167 1.15335 25.61H3.44084C3.67806 25.9828 3.8475 26.6182 3.94917 27.5162C4.03389 27.5332 4.16097 27.5417 4.33042 27.5417ZM21.3339 7.33549L26.3918 22.0008C27.1035 22.255 27.6033 22.5515 27.8914 22.8904L27.6372 25H21.6897L21.4356 22.8904C21.6389 22.6193 22.0456 22.3651 22.6556 22.1279L21.9693 19.9929H16.886L16.2506 22.0517C16.8436 22.2889 17.2842 22.5685 17.5722 22.8904L17.3181 25H11.5231L11.2689 22.8904C11.5739 22.5007 12.1416 22.1788 12.9718 21.9246L17.8518 7.33549H21.3339ZM19.2243 10.8938C19.2243 11.9274 19.0125 13.1305 18.5889 14.503L17.5977 17.6546H21.2322L20.2664 14.5538C19.8767 13.3677 19.6564 12.2917 19.6056 11.3259L19.5802 10.8938H19.2243ZM42.3669 12.5967C42.3669 13.7489 42.0026 14.7148 41.274 15.4942C40.5623 16.2736 39.6643 16.8667 38.5798 17.2734C39.427 17.6292 39.9862 18.0613 40.2573 18.5696L42.1127 22.1025C42.9091 22.3736 43.4513 22.6871 43.7394 23.0429L43.4852 25H39.1898L36.2669 18.7729C35.9958 18.146 35.6823 17.8325 35.3265 17.8325H33.6744V21.8992C34.9114 22.1703 35.6823 22.5007 35.9873 22.8904L35.7332 25H28.8707L28.6165 22.8904C28.8368 22.6024 29.3028 22.3228 30.0144 22.0517V10.4363C29.3197 10.1821 28.8538 9.89409 28.6165 9.57215L28.8707 7.46257H35.3519C37.7241 7.49646 39.4863 7.87771 40.6386 8.60632C41.7908 9.33492 42.3669 10.6651 42.3669 12.5967ZM35.174 10.233H33.6744V15.0621H35.1232C36.2754 15.0621 37.1311 14.8927 37.6902 14.5538C38.2664 14.198 38.5544 13.571 38.5544 12.673C38.5544 11.7749 38.2664 11.148 37.6902 10.7921C37.1141 10.4194 36.2754 10.233 35.174 10.233ZM56.4713 25H44.8305L44.5763 22.8904C44.7966 22.6024 45.2626 22.3228 45.9743 22.0517V10.4363C45.2795 10.1821 44.8136 9.89409 44.5763 9.57215L44.8305 7.46257H50.778L51.0322 9.57215C50.761 9.89409 50.2951 10.1821 49.6342 10.4363V22.2296H53.6501C53.8703 21.3485 54.1838 20.7215 54.5905 20.3488L56.4713 20.5775V25Z" fill="white"/>
<path d="M14.5412 29.403C14.1944 29.3112 13.8322 29.2653 13.4546 29.2653C13.0771 29.2653 12.7711 29.3622 12.5364 29.5561C12.3119 29.7397 12.1997 30.005 12.1997 30.3519C12.1997 30.6886 12.2864 30.9539 12.4599 31.1477C12.6333 31.3416 12.9751 31.5099 13.4853 31.6528L14.8473 32.0507C15.5819 32.2649 16.1635 32.6016 16.592 33.0607C17.0307 33.5097 17.2501 34.1729 17.2501 35.0503C17.2501 36.091 16.8726 36.9123 16.1176 37.5143C15.3728 38.1163 14.4443 38.4172 13.3322 38.4172C12.72 38.4172 12.0875 38.3407 11.4345 38.1877C10.7917 38.0244 10.2561 37.8 9.82754 37.5143C9.82754 37.4531 9.82754 37.3357 9.82754 37.1623C9.82754 36.9888 9.86325 36.693 9.93467 36.2746C10.0061 35.8563 10.1081 35.5145 10.2408 35.2493H11.6947C11.8579 35.5655 11.9548 35.989 11.9854 36.5195C12.3425 36.6725 12.7558 36.7491 13.2251 36.7491C13.7046 36.7491 14.0974 36.6368 14.4035 36.4124C14.7096 36.1879 14.8626 35.8665 14.8626 35.4482C14.8626 35.2544 14.8473 35.0962 14.8167 34.9738C14.7861 34.8411 14.6892 34.7034 14.5259 34.5606C14.3729 34.4075 14.1484 34.2851 13.8526 34.1933L12.2762 33.7341C10.6744 33.275 9.87345 32.2547 9.87345 30.6733C9.87345 29.7448 10.2101 29.0051 10.8835 28.4542C11.5569 27.893 12.4344 27.6124 13.5159 27.6124C14.6076 27.6124 15.6738 27.8573 16.7145 28.347C16.7145 28.4082 16.7145 28.5256 16.7145 28.699C16.7145 28.8725 16.6787 29.1684 16.6073 29.5867C16.5359 30.005 16.4339 30.3468 16.3012 30.6121H14.8473C14.6739 30.3672 14.5719 29.9642 14.5412 29.403ZM27.138 38.2948H24.5975L21.1999 32.7853L23.7557 29.3877C23.47 29.2551 23.2711 29.1173 23.1589 28.9745L23.3119 27.7349H26.8013L26.9543 28.9745C26.8115 29.1377 26.5462 29.301 26.1585 29.4642L23.5109 32.724L25.9289 36.3665C26.5921 36.5093 27.0461 36.7287 27.291 37.0245L27.138 38.2948ZM21.7968 27.7349L21.9498 29.0051C21.7866 29.199 21.506 29.3724 21.1081 29.5255V36.5195C21.5162 36.6828 21.7968 36.8511 21.9498 37.0245L21.7968 38.2948H18.2156L18.0625 37.0245C18.1952 36.8511 18.4758 36.6828 18.9043 36.5195V29.5255C18.486 29.3724 18.2054 29.199 18.0625 29.0051L18.2156 27.7349H21.7968ZM27.3668 39.8252C27.7341 39.8252 27.9943 39.7283 28.1473 39.5344C28.3004 39.3508 28.3769 38.9835 28.3769 38.4325V29.5255C27.9586 29.3724 27.678 29.199 27.5352 29.0051L27.6882 27.7349H31.2694L31.4224 29.0051C31.2592 29.199 30.9786 29.3724 30.5807 29.5255L30.5654 38.2948C30.5654 39.4681 30.3358 40.2895 29.8767 40.7588C29.4278 41.2383 28.6932 41.4781 27.6729 41.4781C26.6628 41.4781 25.7956 41.2128 25.0712 40.6823C25.0712 40.621 25.0712 40.5088 25.0712 40.3456C25.0712 40.1925 25.1069 39.9324 25.1783 39.5651C25.2395 39.208 25.3314 38.907 25.4538 38.6621H26.8312C26.974 38.8866 27.076 39.2692 27.1373 39.8099C27.1883 39.8201 27.2648 39.8252 27.3668 39.8252ZM35.7812 26.2503C35.8424 25.8014 35.9954 25.2913 36.2403 24.7199C36.4954 24.1486 36.7708 23.7149 37.0667 23.4191L38.6584 24.3985C38.5155 24.7964 38.2452 25.2199 37.8472 25.6688C37.4493 26.1075 37.0361 26.4595 36.6076 26.7248C36.0566 26.4289 35.7812 26.2708 35.7812 26.2503ZM37.7248 27.6583L40.7704 36.4889C41.1989 36.6419 41.4999 36.8205 41.6733 37.0245L41.5203 38.2948H37.9391L37.786 37.0245C37.9085 36.8613 38.1533 36.7083 38.5206 36.5654L38.1074 35.2799H35.0466L34.664 36.5195C35.0211 36.6623 35.2863 36.8307 35.4598 37.0245L35.3067 38.2948H31.8174L31.6643 37.0245C31.848 36.7899 32.1898 36.596 32.6897 36.443L35.6281 27.6583H37.7248ZM36.4546 29.8009C36.4546 30.4233 36.327 31.1477 36.072 31.9741L35.4751 33.8719H37.6636L37.082 32.0047C36.8474 31.2905 36.7147 30.6427 36.6841 30.0611L36.6688 29.8009H36.4546ZM49.2724 38.2948H42.263L42.11 37.0245C42.2426 36.8511 42.5232 36.6828 42.9517 36.5195V29.5255C42.5334 29.3724 42.2528 29.199 42.11 29.0051L42.263 27.7349H45.8442L45.9972 29.0051C45.834 29.199 45.5534 29.3724 45.1555 29.5255V36.6266H47.5736C47.7062 36.0961 47.895 35.7186 48.1398 35.4941L49.2724 35.6319V38.2948ZM56.9238 27.7349V30.3978L55.7913 30.5355C55.5566 30.3315 55.3678 29.954 55.225 29.403H52.8375V32.1884H54.9648C55.0873 31.8823 55.2148 31.6681 55.3474 31.5456L56.3116 31.6528V34.3769L55.3474 34.4993C55.2148 34.3973 55.0873 34.1831 54.9648 33.8566H52.8375V36.3971C53.5211 36.5501 54.016 36.7593 54.322 37.0245L54.169 38.2948H49.945L49.792 37.0245C49.9246 36.8511 50.2052 36.6828 50.6337 36.5195V29.5255C50.2154 29.3724 49.9348 29.199 49.792 29.0051L49.945 27.7349H56.9238ZM66.0059 27.7502V29.9387L65.0417 30.0611C64.9091 29.9591 64.7816 29.7448 64.6591 29.4183H62.8226V36.5195C63.2307 36.6828 63.5113 36.8511 63.6643 37.0245L63.5113 38.2948H59.9301L59.7771 37.0245C59.9097 36.8511 60.1903 36.6828 60.6188 36.5195V29.4183H58.7823C58.6598 29.7448 58.5323 29.9591 58.3997 30.0611L57.4355 29.9387V27.7502H66.0059ZM70.3549 27.7349L70.508 29.0051C70.3447 29.199 70.0642 29.3724 69.6662 29.5255V36.5195C70.0744 36.6828 70.3549 36.8511 70.508 37.0245L70.3549 38.2948H66.7737L66.6207 37.0245C66.7533 36.8511 67.0339 36.6828 67.4624 36.5195V29.5255C67.0441 29.3724 66.7635 29.199 66.6207 29.0051L66.7737 27.7349H70.3549Z" fill="white"/>
</svg>
