<svg width="32" height="32" viewBox="0 0 32 32" fill="none" xmlns="http://www.w3.org/2000/svg">
<path fill-rule="evenodd" clip-rule="evenodd" d="M23.7143 13.4286C23.6607 11.25 22.9062 9.43304 21.4509 7.97768C19.9955 6.52232 18.1786 5.76786 16 5.71429C13.8214 5.76786 12.0045 6.52232 10.5491 7.97768C9.09375 9.43304 8.33928 11.25 8.28571 13.4286C8.28571 15.0179 8.9241 16.8348 10.2009 18.8795C11.4777 20.9241 13.4107 23.1875 16 25.6696C18.5893 23.1875 20.5223 20.9241 21.7991 18.8795C23.0759 16.8348 23.7143 15.0179 23.7143 13.4286ZM16 28C9.71428 22.2857 6.57143 17.4286 6.57143 13.4286C6.64286 10.75 7.5625 8.52679 9.33036 6.75893C11.0982 4.99107 13.3214 4.07143 16 4C18.6786 4.07143 20.9018 4.99107 22.6696 6.75893C24.4375 8.52679 25.3571 10.75 25.4286 13.4286C25.4286 17.4286 22.2857 22.2857 16 28ZM16 14.2857C16.4821 14.2679 16.8839 14.0982 17.2054 13.7768C17.5268 13.4554 17.6875 13.0536 17.6875 12.5714C17.6875 12.0893 17.5268 11.6875 17.2054 11.3661C16.8839 11.0446 16.4821 10.8839 16 10.8839C15.5179 10.8839 15.1161 11.0446 14.7946 11.3661C14.4732 11.6875 14.3125 12.0893 14.3125 12.5714C14.3125 13.0536 14.4732 13.4554 14.7946 13.7768C15.1161 14.0982 15.5179 14.2679 16 14.2857ZM16 16C15.0357 15.9821 14.2277 15.6473 13.5759 14.9955C12.9241 14.3438 12.5893 13.5357 12.5714 12.5714C12.5893 11.6071 12.9241 10.7991 13.5759 10.1473C14.2277 9.49554 15.0357 9.16071 16 9.14286C16.9643 9.16071 17.7723 9.49554 18.4241 10.1473C19.0759 10.7991 19.4107 11.6071 19.4286 12.5714C19.4107 13.5357 19.0759 14.3438 18.4241 14.9955C17.7723 15.6473 16.9643 15.9821 16 16ZM25.2679 21.1429L28 28H20.2857V26.2857H11.7143V28H4L6.73214 21.1429H25.2679ZM23.4196 21.1429H8.58035L6.54464 26.2857H25.4554L23.4196 21.1429Z" fill="black"/>
</svg>
