<svg width="32" height="32" viewBox="0 0 32 32" fill="none" xmlns="http://www.w3.org/2000/svg">
<path fill-rule="evenodd" clip-rule="evenodd" d="M12.4766 23.3333C12.6866 22.7795 13.0256 22.3355 13.4935 22.0013C13.9614 21.6671 14.4913 21.5 15.0833 21.5C15.6753 21.5 16.2053 21.6671 16.6732 22.0013C17.1411 22.3355 17.48 22.7795 17.6901 23.3333H27V25.1667H17.6901C17.48 25.7205 17.1411 26.1645 16.6732 26.4987C16.2053 26.8329 15.6753 27 15.0833 27C14.4913 27 13.9614 26.8329 13.4935 26.4987C13.0256 26.1645 12.6866 25.7205 12.4766 25.1667H5V23.3333H12.4766ZM17.9766 15.0833C18.1866 14.5295 18.5256 14.0855 18.9935 13.7513C19.4614 13.4171 19.9913 13.25 20.5833 13.25C21.1753 13.25 21.7053 13.4171 22.1732 13.7513C22.6411 14.0855 22.98 14.5295 23.1901 15.0833H27V16.9167H23.1901C22.98 17.4705 22.6411 17.9145 22.1732 18.2487C21.7053 18.5829 21.1753 18.75 20.5833 18.75C19.9913 18.75 19.4614 18.5829 18.9935 18.2487C18.5256 17.9145 18.1866 17.4705 17.9766 16.9167H5V15.0833H17.9766ZM8.8099 6.83333C9.01997 6.27951 9.35894 5.8355 9.82682 5.5013C10.2947 5.1671 10.8247 5 11.4167 5C12.0087 5 12.5386 5.1671 13.0065 5.5013C13.4744 5.8355 13.8134 6.27951 14.0234 6.83333H27V8.66667H14.0234C13.8134 9.22049 13.4744 9.6645 13.0065 9.9987C12.5386 10.3329 12.0087 10.5 11.4167 10.5C10.8247 10.5 10.2947 10.3329 9.82682 9.9987C9.35894 9.6645 9.01997 9.22049 8.8099 8.66667H5V6.83333H8.8099Z" fill="black"/>
</svg>
