<svg width="20" height="20" viewBox="0 0 20 20" fill="none" xmlns="http://www.w3.org/2000/svg">
<g opacity="0.5">
<path fill-rule="evenodd" clip-rule="evenodd" d="M4.70145 15.2985C6.11328 16.7104 7.87946 17.4442 10 17.5C12.1205 17.4442 13.8867 16.7104 15.2985 15.2985C16.7104 13.8867 17.4442 12.1205 17.5 10C17.4442 7.87946 16.7104 6.11328 15.2985 4.70145C13.8867 3.28962 12.1205 2.5558 10 2.5C7.87946 2.5558 6.11328 3.28962 4.70145 4.70145C3.28962 6.11328 2.5558 7.87946 2.5 10C2.5558 12.1205 3.28962 13.8867 4.70145 15.2985ZM14.5452 14.5452C13.3343 15.7561 11.8192 16.3839 10 16.4286C8.1808 16.3839 6.66574 15.7561 5.4548 14.5452C4.24386 13.3343 3.61607 11.8192 3.57143 10C3.61607 8.1808 4.24386 6.66574 5.4548 5.4548C6.66574 4.24386 8.1808 3.61607 10 3.57143C11.8192 3.61607 13.3343 4.24386 14.5452 5.4548C15.7561 6.66574 16.3839 8.1808 16.4286 10C16.3839 11.8192 15.7561 13.3343 14.5452 14.5452ZM9.46429 5.71429C9.62054 5.71429 9.74888 5.76451 9.84933 5.86496C9.94978 5.9654 10 6.09375 10 6.25V10H13.75C14.1071 10 14.2857 10.1786 14.2857 10.5357C14.2857 10.8929 14.1071 11.0714 13.75 11.0714L9.46429 11.0714C9.10714 11.0714 8.92857 10.8929 8.92857 10.5357V6.25C8.92857 6.09375 8.9788 5.9654 9.07924 5.86496C9.17969 5.76451 9.30804 5.71429 9.46429 5.71429Z" fill="black"/>
</g>
</svg>
